<svg width="15" height="15" viewBox="0 0 15 15" fill="none" xmlns="http://www.w3.org/2000/svg">
<path d="M9.03682 3.8846C9.64354 4.00297 10.2011 4.2997 10.6382 4.73681C11.0754 5.17391 11.3721 5.73151 11.4905 6.33823L9.03682 3.8846ZM9.03682 1.3999C10.2974 1.53994 11.4728 2.10442 12.3702 3.00067C13.2676 3.89692 13.8335 5.07167 13.9752 6.33202L9.03682 1.3999ZM13.354 11.289V13.1525C13.3547 13.3255 13.3192 13.4967 13.2499 13.6553C13.1806 13.8138 13.079 13.9561 12.9515 14.073C12.824 14.19 12.6735 14.279 12.5096 14.3344C12.3458 14.3898 12.1721 14.4104 11.9998 14.3949C10.0884 14.1872 8.25228 13.534 6.63909 12.4879C5.13823 11.5341 3.86576 10.2617 2.91205 8.76081C1.86225 7.1403 1.20894 5.29528 1.00504 3.37524C0.989519 3.20346 1.00993 3.03033 1.06499 2.86688C1.12004 2.70343 1.20852 2.55323 1.3248 2.42585C1.44108 2.29846 1.58261 2.19669 1.74038 2.127C1.89815 2.05731 2.0687 2.02124 2.24118 2.02108H4.1047C4.40616 2.01811 4.69841 2.12486 4.92699 2.32143C5.15556 2.51801 5.30486 2.79099 5.34705 3.0895C5.4257 3.68586 5.57157 4.27142 5.78187 4.83499C5.86544 5.05733 5.88353 5.29896 5.83399 5.53126C5.78445 5.76355 5.66935 5.97678 5.50234 6.14567L4.71345 6.93456C5.59773 8.4897 6.88536 9.77733 8.44049 10.6616L9.22938 9.87271C9.39827 9.7057 9.6115 9.59061 9.8438 9.54106C10.0761 9.49152 10.3177 9.50961 10.5401 9.59319C11.1036 9.80348 11.6892 9.94935 12.2856 10.028C12.5873 10.0706 12.8629 10.2226 13.0599 10.4551C13.2569 10.6876 13.3615 10.9844 13.354 11.289Z" stroke="white" stroke-linecap="round" stroke-linejoin="round"/>
</svg>
